<svg width="23" height="23" viewBox="0 0 23 23" fill="none" xmlns="http://www.w3.org/2000/svg">
<path d="M6.25312 20.125C5.86979 20.125 5.53437 19.9812 5.24687 19.6937C4.95937 19.4062 4.81562 19.0708 4.81562 18.6875V5.03125H3.83333V3.59375H8.33749V2.875H14.6625V3.59375H19.1667V5.03125H18.1844V18.6875C18.1844 19.0708 18.0406 19.4062 17.7531 19.6937C17.4656 19.9812 17.1302 20.125 16.7469 20.125H6.25312ZM16.7469 5.03125H6.25312V18.6875H16.7469V5.03125ZM8.7927 16.6271H10.2302V7.06771H8.7927V16.6271ZM12.7698 16.6271H14.2073V7.06771H12.7698V16.6271ZM6.25312 5.03125V18.6875V5.03125Z" fill="white"/>
</svg>
